<svg xmlns:dc="http://purl.org/dc/elements/1.1/" xmlns:cc="http://creativecommons.org/ns#" xmlns:rdf="http://www.w3.org/1999/02/22-rdf-syntax-ns#" xmlns:svg="http://www.w3.org/2000/svg" xmlns="http://www.w3.org/2000/svg" xmlns:sodipodi="http://sodipodi.sourceforge.net/DTD/sodipodi-0.dtd" xmlns:inkscape="http://www.inkscape.org/namespaces/inkscape" version="1.1" x="0px" y="0px" viewBox="0 0 100 100"><g transform="translate(0,-952.36218)"><path style="text-indent:0;text-transform:none;direction:ltr;block-progression:tb;baseline-shift:baseline;color:#000000;enable-background:accumulate;" d="m 24,961.36215 c -9.4007,0 -17,7.5993 -17,17.0006 l 0,24.00085 c 0,8.9952 6.9772,16.2576 15.8125,16.8755 l -4.7813,22.907 c -0.2285,0.9098 0.8115,1.6617 1.6876,0.9063 l 23.6874,-23.6883 20.4688,0 c 2.0615,5.8242 7.6027,10.0003 14.125,10.0003 8.2724,0 15,-6.7278 15,-15.0004 0,-6.5226 -4.176,-12.0639 -10,-14.1255 l 0,-21.87575 c 0,-9.4013 -7.5993,-17.0006 -17,-17.0006 l -42,0 z m 0,2.0001 42,0 c 8.3273,0 15,6.6726 15,15.0005 l 0,21.3132 c -0.9665,-0.1962 -1.9764,-0.3125 -3,-0.3125 -8.2724,0 -15,6.72785 -15,15.00055 0,1.0236 0.1163,2.0335 0.3125,3.0001 l -20.3125,0 c -0.264,-0.01 -0.5291,0.097 -0.7188,0.2812 l -21.625,21.6257 4.3126,-20.7194 c 0.109,-0.5717 -0.3869,-1.1795 -0.9688,-1.1875 -8.3273,0 -15,-6.6728 -15,-15.0005 l 0,-24.00085 c 0,-8.3279 6.6727,-15.0005 15,-15.0005 z m 54,38.00125 c 7.1916,0 13,5.8086 13,13.0005 0,7.1917 -5.8084,13.0004 -13,13.0004 -7.1915,0 -13,-5.8087 -13,-13.0004 0,-7.1919 5.8085,-13.0005 13,-13.0005 z m 6.8125,8.0003 c -0.2406,0.036 -0.4447,0.1551 -0.5937,0.375 l -7.4063,9.2503 -6.2187,-4.4376 c -0.4255,-0.3109 -1.0954,-0.2067 -1.4063,0.2187 -0.3108,0.4255 -0.2067,1.0955 0.2187,1.4063 l 7,5.0002 c 0.4127,0.3017 1.0581,0.2136 1.375,-0.1875 l 8,-10.0004 c 0.3126,-0.4353 0.3608,-0.9945 -0.1874,-1.4375 -0.2636,-0.175 -0.5407,-0.2232 -0.7813,-0.1875 z" fill="#000000" fill-opacity="1" stroke="none" marker="none" visibility="visible" display="inline" overflow="visible"></path></g></svg>