<svg xmlns="http://www.w3.org/2000/svg" xmlns:xlink="http://www.w3.org/1999/xlink" version="1.1" x="0px" y="0px" viewBox="0 0 100 100" enable-background="new 0 0 100 100" xml:space="preserve"><g><path fill="#000000" d="M94.925,22.723c-0.051-0.12-0.123-0.228-0.214-0.318c-0.005-0.005-0.011-0.006-0.016-0.011   c-0.088-0.083-0.188-0.151-0.302-0.199c-0.108-0.044-0.223-0.063-0.336-0.067c-0.013-0.001-0.023-0.008-0.036-0.008H94.02   c-0.001,0-0.002,0-0.004,0H5.983c-0.002,0-0.003,0-0.004,0H5.979c-0.005,0-0.01,0.003-0.015,0.003   c-0.123,0.002-0.243,0.025-0.359,0.073c-0.112,0.046-0.21,0.114-0.297,0.197c-0.006,0.005-0.013,0.006-0.019,0.012   c-0.091,0.091-0.163,0.198-0.214,0.318C5.026,22.842,5,22.969,5,23.096c0,0.001,0,0.002,0,0.002v53.805   c0,0.017,0.009,0.032,0.01,0.05c0.004,0.068,0.023,0.134,0.04,0.2c0.016,0.058,0.026,0.115,0.053,0.168   c0.025,0.053,0.062,0.097,0.098,0.145c0.04,0.058,0.079,0.112,0.131,0.159c0.013,0.012,0.019,0.028,0.032,0.039   c0.044,0.036,0.097,0.053,0.145,0.08c0.041,0.022,0.075,0.05,0.119,0.066c0.114,0.044,0.23,0.071,0.351,0.071c0,0,0,0,0.001,0   h88.043c0.001,0,0.001,0,0.001,0c0.12,0,0.236-0.027,0.351-0.071c0.044-0.017,0.079-0.044,0.12-0.066   c0.047-0.027,0.101-0.044,0.144-0.08c0.014-0.011,0.02-0.027,0.032-0.039c0.052-0.047,0.091-0.102,0.131-0.159   c0.036-0.048,0.072-0.092,0.098-0.145c0.026-0.053,0.037-0.11,0.053-0.169c0.017-0.066,0.036-0.131,0.04-0.199   c0.001-0.018,0.01-0.033,0.01-0.05V23.098c0,0,0-0.001,0-0.002C95,22.969,94.974,22.842,94.925,22.723z M91.67,24.076L50,65.994   L8.33,24.076H91.67z M6.957,25.469l21.71,21.839L6.957,74.139V25.469z M8.029,75.924l22.024-27.22l19.253,19.368   c0.001,0.001,0.002,0.001,0.002,0.002c0.001,0,0.001,0.001,0.002,0.002c0.066,0.065,0.146,0.104,0.224,0.148   c0.034,0.019,0.063,0.05,0.098,0.064c0.118,0.048,0.242,0.071,0.368,0.071s0.25-0.023,0.368-0.071   c0.034-0.015,0.063-0.046,0.098-0.064c0.078-0.044,0.157-0.083,0.224-0.148c0.001-0.001,0.001-0.002,0.002-0.002   c0-0.001,0.001-0.001,0.002-0.002l19.253-19.368l22.024,27.22H8.029z M93.043,74.139l-21.71-26.831l21.71-21.839V74.139z"></path></g></svg>
