<svg xmlns="http://www.w3.org/2000/svg" xmlns:xlink="http://www.w3.org/1999/xlink" version="1.1" x="0px" y="0px" viewBox="0 0 100 100" style="enable-background:new 0 0 100 100;" xml:space="preserve"><g><path d="M64.794,60.434V47.489c2.705,0.4,4.917,2.461,5.426,5.213c0.097,0.517,0.597,0.86,1.107,0.762   c0.516-0.096,0.856-0.592,0.762-1.107c-0.677-3.654-3.67-6.38-7.295-6.792v-2.558c0-0.525-0.426-0.95-0.95-0.95   s-0.95,0.425-0.95,0.95v2.556c-4.178,0.474-7.436,4.026-7.436,8.328c0,4.303,3.258,7.854,7.436,8.328v12.952   c-2.928-0.425-5.226-2.773-5.507-5.804c-0.049-0.521-0.5-0.893-1.034-0.858c-0.522,0.049-0.906,0.512-0.858,1.034   c0.373,4.015,3.481,7.109,7.399,7.546v2.556c0,0.524,0.426,0.95,0.95,0.95s0.95-0.426,0.95-0.95v-2.556   c4.177-0.475,7.435-4.025,7.435-8.328C72.229,64.459,68.971,60.908,64.794,60.434z M57.358,53.891c0-3.252,2.409-5.945,5.535-6.408   v12.816C59.768,59.836,57.358,57.144,57.358,53.891z M64.794,75.168V62.354c3.125,0.463,5.534,3.155,5.534,6.407   C70.328,72.014,67.919,74.706,64.794,75.168z"></path><path d="M28.342,20.356h42.937c0.524,0,0.95-0.425,0.95-0.95s-0.426-0.95-0.95-0.95H28.342c-0.525,0-0.95,0.425-0.95,0.95   S27.817,20.356,28.342,20.356z"></path><path d="M28.342,35.416h42.937c0.524,0,0.95-0.425,0.95-0.95s-0.426-0.95-0.95-0.95H28.342c-0.525,0-0.95,0.425-0.95,0.95   S27.817,35.416,28.342,35.416z"></path><path d="M28.342,50.476h20.746c0.525,0,0.95-0.425,0.95-0.95s-0.425-0.95-0.95-0.95H28.342c-0.525,0-0.95,0.425-0.95,0.95   S27.817,50.476,28.342,50.476z"></path><path d="M28.342,80.595h24.94c0.524,0,0.95-0.426,0.95-0.95s-0.426-0.95-0.95-0.95h-24.94c-0.525,0-0.95,0.426-0.95,0.95   S27.817,80.595,28.342,80.595z"></path><path d="M28.342,65.535h20.746c0.525,0,0.95-0.426,0.95-0.95s-0.425-0.95-0.95-0.95H28.342c-0.525,0-0.95,0.426-0.95,0.95   S27.817,65.535,28.342,65.535z"></path><path d="M79.646,9.149H20.354c-0.525,0-0.95,0.425-0.95,0.95V89.9c0,0.524,0.425,0.95,0.95,0.95h59.293   c0.524,0,0.95-0.426,0.95-0.95V10.1C80.597,9.575,80.171,9.149,79.646,9.149z M78.696,88.95H21.304v-77.9h57.393V88.95z"></path></g></svg>